<svg width="32" height="32" viewBox="0 0 32 32" fill="none" xmlns="http://www.w3.org/2000/svg">
<path d="M16.0072 6.48836C19.213 6.48836 19.5925 6.50261 20.853 6.55885C22.0251 6.61059 22.6573 6.80707 23.0795 6.9713C23.6374 7.18727 24.0401 7.44973 24.4571 7.86668C24.8793 8.28887 25.1365 8.68707 25.3569 9.24499C25.5212 9.66719 25.7176 10.3039 25.7694 11.4714C25.8256 12.7373 25.8399 13.1167 25.8399 16.318C25.8399 19.5194 25.8256 19.9033 25.7694 21.1646C25.7176 22.3367 25.5212 22.9689 25.3569 23.3911C25.141 23.949 24.8793 24.3517 24.4616 24.7687C24.0394 25.1909 23.6412 25.4481 23.084 25.6685C22.6618 25.8328 22.0244 26.0292 20.8575 26.081C19.5917 26.1372 19.2123 26.1515 16.0109 26.1515C12.8096 26.1515 12.4257 26.1372 11.1643 26.081C9.99224 26.0292 9.36007 25.8328 8.93788 25.6685C8.37996 25.4526 7.97726 25.1909 7.55957 24.7732C7.13737 24.351 6.88016 23.9528 6.65969 23.3956C6.49546 22.9734 6.29898 22.336 6.24724 21.1691C6.191 19.9033 6.17675 19.5239 6.17675 16.3225C6.17675 13.1212 6.191 12.7373 6.24724 11.4759C6.29898 10.3039 6.49546 9.67168 6.65969 9.24949C6.87566 8.69157 7.13812 8.28887 7.55507 7.87118C7.97726 7.44898 8.37546 7.19177 8.93338 6.9713C9.35558 6.80707 9.99224 6.61059 11.1598 6.55885C12.4204 6.50261 12.8006 6.48836 16.0064 6.48836H16.0072ZM16.0072 4.3279C12.7496 4.3279 12.3424 4.34215 11.0623 4.39839C9.78752 4.45463 8.91088 4.66085 8.15199 4.95631C7.36009 5.26527 6.68968 5.67322 6.02452 6.34363C5.35411 7.00954 4.94616 7.6792 4.63721 8.4666C4.34174 9.23074 4.13552 10.1021 4.07928 11.377C4.02304 12.6615 4.00879 13.0687 4.00879 16.3263C4.00879 19.5839 4.02304 19.9911 4.07928 21.2711C4.13552 22.546 4.34174 23.4226 4.63721 24.1815C4.94691 24.9734 5.35411 25.6438 6.02452 26.309C6.68968 26.9741 7.36009 27.3873 8.14749 27.6918C8.91163 27.9872 9.78302 28.1935 11.0578 28.2497C12.3372 28.3059 12.7451 28.3202 16.0027 28.3202C19.2603 28.3202 19.6682 28.3059 20.9475 28.2497C22.2224 28.1935 23.099 27.9872 23.8579 27.6918C24.6453 27.3873 25.3157 26.9749 25.9809 26.309C26.646 25.6431 27.0592 24.9734 27.3637 24.186C27.6591 23.4218 27.8654 22.5505 27.9216 21.2756C27.9778 19.9963 27.9921 19.5884 27.9921 16.3308C27.9921 13.0732 27.9778 12.666 27.9216 11.386C27.8654 10.1111 27.6591 9.23449 27.3637 8.47559C27.0682 7.67845 26.6603 7.00879 25.9906 6.34288C25.3254 5.67772 24.655 5.26452 23.8676 4.96006C23.1035 4.6646 22.2321 4.45838 20.9573 4.40214C19.6734 4.3414 19.2655 4.32715 16.0079 4.32715L16.0072 4.3279Z" fill="black"/>
<path d="M16.0062 10.1631C12.6039 10.1631 9.84277 12.9235 9.84277 16.3265C9.84277 19.7296 12.6032 22.4899 16.0062 22.4899C19.4092 22.4899 22.1696 19.7296 22.1696 16.3265C22.1696 12.9242 19.4092 10.1631 16.0062 10.1631ZM16.0062 20.3242C13.7985 20.3242 12.0085 18.5342 12.0085 16.3265C12.0085 14.1188 13.7985 12.3288 16.0062 12.3288C18.2139 12.3288 20.0039 14.1188 20.0039 16.3265C20.0039 18.5342 18.2139 20.3242 16.0062 20.3242Z" fill="black"/>
<path d="M23.8517 9.91953C23.8517 10.7144 23.2076 11.3586 22.4127 11.3586C21.6178 11.3586 20.9736 10.7144 20.9736 9.91953C20.9736 9.12463 21.6178 8.48047 22.4127 8.48047C23.2076 8.48047 23.8517 9.12463 23.8517 9.91953Z" fill="black"/>
</svg>
