<svg width="15" height="18" viewBox="0 0 15 18" fill="none" xmlns="http://www.w3.org/2000/svg">
<path d="M7.1495 15.448L2.381 17.488C1.81333 17.7327 1.27458 17.6867 0.76475 17.3502C0.254917 17.0137 0 16.5376 0 15.9218V1.70925C0 1.24758 0.168916 0.847332 0.50675 0.508499C0.844416 0.169499 1.24325 0 1.70325 0H12.5957C13.0574 0 13.4577 0.169499 13.7965 0.508499C14.1355 0.847332 14.305 1.24758 14.305 1.70925V15.9218C14.305 16.5376 14.0491 17.0137 13.5372 17.3502C13.0254 17.6867 12.4857 17.7327 11.918 17.488L7.1495 15.448ZM7.1495 13.6257L12.5957 15.9218V1.70925H1.70325V15.9218L7.1495 13.6257ZM7.1495 1.70925H1.70325H12.5957H7.1495Z" fill="black"/>
</svg>
