<svg width="45" height="19" viewBox="0 0 45 19" fill="none" xmlns="http://www.w3.org/2000/svg">
<path d="M0 18.2175V17.3645C0 15.5005 0.926333 14.2757 2.779 13.69C4.63133 13.104 6.27283 12.811 7.7035 12.811C9.13383 12.811 10.7752 13.1032 12.6275 13.6875C14.4802 14.2722 15.4065 15.4978 15.4065 17.3645V18.2175H0ZM7.701 10.1325C6.61333 10.1325 5.683 9.7445 4.91 8.9685C4.13667 8.19217 3.75 7.259 3.75 6.169C3.75 5.079 4.13733 4.14733 4.912 3.374C5.68667 2.601 6.61783 2.2145 7.7055 2.2145C8.79317 2.2145 9.7235 2.60233 10.4965 3.378C11.2698 4.154 11.6565 5.08583 11.6565 6.1735C11.6565 7.26117 11.2692 8.193 10.4945 8.969C9.71983 9.74467 8.78867 10.1325 7.701 10.1325ZM18.1415 13.1305C17.7588 13.1305 17.4428 13.0107 17.1935 12.771C16.9442 12.5313 16.8195 12.2235 16.8195 11.8475C16.8195 11.6598 16.9442 11.335 17.1935 10.873C17.4522 10.5063 17.6565 10.123 17.8065 9.723C17.9565 9.323 18.0315 8.906 18.0315 8.472C18.0315 8.038 17.9565 7.609 17.8065 7.185C17.6565 6.761 17.4508 6.38633 17.1895 6.061C17.0815 5.91533 16.9928 5.76383 16.9235 5.6065C16.8542 5.44916 16.8195 5.2825 16.8195 5.1065C16.8195 4.7255 16.9445 4.411 17.1945 4.163C17.4445 3.91533 17.7602 3.7915 18.1415 3.7915C18.3098 3.7915 18.4828 3.8185 18.6605 3.8725C18.8382 3.9265 18.977 4.02016 19.077 4.1535C19.6597 4.7615 20.0863 5.43817 20.357 6.1835C20.6277 6.92883 20.763 7.692 20.763 8.473C20.763 9.24766 20.6173 10.0255 20.326 10.8065C20.0347 11.5878 19.6065 12.2578 19.0415 12.8165C18.9082 12.9498 18.7692 13.0355 18.6245 13.0735C18.4802 13.1115 18.3192 13.1305 18.1415 13.1305ZM21.9495 16.934C21.5602 16.934 21.2437 16.8083 21 16.557C20.7567 16.306 20.635 15.9883 20.635 15.604C20.635 15.4267 20.6673 15.2617 20.732 15.109C20.7967 14.956 20.8832 14.8078 20.9915 14.6645C21.8108 13.7055 22.4182 12.7032 22.8135 11.6575C23.2088 10.6118 23.4065 9.54933 23.4065 8.47C23.4065 7.39066 23.2088 6.31883 22.8135 5.2545C22.4182 4.18983 21.8102 3.19083 20.9895 2.2575C20.8825 2.1155 20.7967 1.97 20.732 1.821C20.6673 1.67167 20.635 1.504 20.635 1.318C20.635 0.930666 20.7598 0.614166 21.0095 0.3685C21.2595 0.122833 21.5757 0 21.958 0C22.1537 0 22.3353 0.045499 22.503 0.136499C22.6707 0.227499 22.8245 0.348667 22.9645 0.5C24.0072 1.7 24.7863 2.9735 25.302 4.3205C25.818 5.6675 26.076 7.04967 26.076 8.467C26.076 9.884 25.818 11.266 25.302 12.613C24.7863 13.9603 24.0073 15.234 22.965 16.434C22.834 16.6007 22.6843 16.7257 22.516 16.809C22.348 16.8923 22.1592 16.934 21.9495 16.934ZM29.1435 18.2175V17.3645C29.1435 15.4978 30.0698 14.2722 31.9225 13.6875C33.7748 13.1032 35.4162 12.811 36.8465 12.811C38.2772 12.811 39.9187 13.104 41.771 13.69C43.6237 14.2757 44.55 15.5005 44.55 17.3645V18.2175H29.1435ZM36.8445 10.1325C35.7568 10.1325 34.8265 9.7445 34.0535 8.9685C33.2802 8.19217 32.8935 7.259 32.8935 6.169C32.8935 5.079 33.2808 4.14733 34.0555 3.374C34.8302 2.601 35.7613 2.2145 36.849 2.2145C37.9367 2.2145 38.867 2.60233 39.64 3.378C40.4133 4.154 40.8 5.08583 40.8 6.1735C40.8 7.26117 40.4127 8.193 39.638 8.969C38.8633 9.74467 37.9322 10.1325 36.8445 10.1325Z" fill="black"/>
</svg>
